<?xml version="1.0" standalone="no"?>
<!DOCTYPE svg PUBLIC "-//W3C//DTD SVG 20010904//EN"
 "http://www.w3.org/TR/2001/REC-SVG-20010904/DTD/svg10.dtd">
<svg version="1.0" xmlns="http://www.w3.org/2000/svg"
 width="700.000000pt" height="700.000000pt" viewBox="0 0 700.000000 700.000000"
 preserveAspectRatio="xMidYMid meet">
<metadata>
Created by potrace 1.11, written by Peter Selinger 2001-2013
</metadata>
<g transform="translate(0.000000,700.000000) scale(0.100000,-0.100000)"
fill="#000000" stroke="none">
<path d="M2015 6142 c-3 -3 -5 -1190 -5 -2639 l0 -2633 514 0 513 0 1 1048 c1
1209 -1 1089 11 1076 9 -8 176 -280 221 -359 9 -16 149 -248 310 -515 161
-267 303 -502 314 -522 12 -20 68 -115 126 -210 58 -95 109 -181 115 -191 5
-10 52 -87 104 -172 l94 -155 625 0 c594 0 624 1 610 18 -8 9 -257 379 -553
822 -296 443 -626 936 -733 1095 -181 269 -193 290 -171 293 54 7 231 63 295
94 184 87 354 233 470 404 36 53 134 223 134 232 0 5 9 26 19 48 39 82 94 265
115 389 31 178 24 531 -14 702 -6 24 -13 60 -16 80 -20 128 -136 388 -223 503
-228 300 -562 481 -1046 565 -16 2 -57 7 -90 10 -33 4 -76 9 -95 12 -43 7
-1638 12 -1645 5z"/>
</g>
</svg>
